<?xml version="1.0" encoding="UTF-8"?>
<svg version="1.1" xmlns="http://www.w3.org/2000/svg" width="816" height="154">
<path d="M0 0 C2.20670825 1.14730439 3.7147998 2.40914659 5.48800659 4.15739441 C6.17163773 4.82511368 6.85526886 5.49283295 7.55961609 6.18078613 C8.2858165 6.90678513 9.01201691 7.63278412 9.76022339 8.38078308 C10.5116008 9.12454697 11.26297821 9.86831085 12.03712463 10.63461304 C13.62194935 12.20863567 15.20281669 13.78665139 16.77999878 15.36833191 C19.20372101 17.7930284 21.64797889 20.19561782 24.09420776 22.59757996 C25.63001183 24.12817883 27.16456107 25.66003804 28.69772339 27.19328308 C29.43404495 27.91320938 30.17036652 28.63313568 30.92900085 29.37487793 C31.93080635 30.39064156 31.93080635 30.39064156 32.95285034 31.42692566 C33.84409355 32.3150872 33.84409355 32.3150872 34.75334167 33.22119141 C35.89694214 34.98625183 35.89694214 34.98625183 35.69203186 37.07492065 C34.59907876 39.70229123 32.9883621 41.255028 30.95944214 43.23625183 C30.2491687 43.94265808 29.53889526 44.64906433 28.80709839 45.37687683 C26.89694214 46.98625183 26.89694214 46.98625183 24.89694214 46.98625183 C28.11660629 50.86155668 31.43393999 54.58153427 35.08053589 58.06047058 C42.54921328 65.19806118 48.09500569 71.25902242 50.83444214 81.48625183 C51.03764398 92.8655549 46.74793986 99.06578033 39.04063129 107.10894775 C36.47696358 109.7437004 33.8894381 112.35411132 31.29537964 114.95890808 C30.17003532 116.0932333 29.04476187 117.22762884 27.91955566 118.36209106 C25.57487057 120.72316504 23.22591863 123.07990178 20.8744812 125.43424988 C17.85854189 128.4556152 14.8591652 131.49288745 11.86331749 134.53415775 C9.55206622 136.87506904 7.22972415 139.2047278 4.90410233 141.5313549 C3.79239289 142.64727542 2.6848127 143.76732528 1.58146286 144.89151192 C0.04498031 146.45472628 -1.50637321 148.0014954 -3.06253052 149.54508972 C-3.94156036 150.42919022 -4.82059021 151.31329071 -5.72625732 152.22418213 C-8.10305786 153.98625183 -8.10305786 153.98625183 -10.19464111 153.96598816 C-12.43454338 152.81607495 -13.9058475 151.54387873 -15.67825317 149.75163269 C-16.35865662 149.07100266 -17.03906006 148.39037262 -17.74008179 147.68911743 C-18.46314514 146.95057022 -19.1862085 146.21202301 -19.93118286 145.45109558 C-20.6801886 144.697845 -21.42919434 143.94459442 -22.20089722 143.16851807 C-24.5920783 140.76054139 -26.97261951 138.34234438 -29.35305786 135.92375183 C-30.97215963 134.28960445 -32.59194318 132.65613228 -34.21243286 131.02336121 C-38.18391968 127.01879337 -42.14671996 123.00578376 -46.10305786 118.98625183 C-44.49770499 115.5756578 -42.69786886 113.36832699 -39.97805786 110.73625183 C-39.25360474 110.02984558 -38.52915161 109.32343933 -37.78274536 108.59562683 C-36.95130005 107.79898621 -36.95130005 107.79898621 -36.10305786 106.98625183 C-37.525708 103.70948836 -39.24316514 101.66256744 -41.84133911 99.22843933 C-42.57932739 98.51945496 -43.31731567 97.81047058 -44.07766724 97.08000183 C-45.6184063 95.61777996 -47.16516587 94.16187201 -48.71829224 92.71281433 C-54.87229156 86.76733453 -59.24043525 80.82201268 -60.76712036 72.26359558 C-60.75422974 71.16144714 -60.74133911 70.05929871 -60.72805786 68.92375183 C-60.74094849 67.81902527 -60.75383911 66.71429871 -60.76712036 65.57609558 C-58.79394689 54.90935195 -50.53528423 47.81202164 -43.16165161 40.47843933 C-41.9895965 39.30114197 -40.81806065 38.12332746 -39.64701843 36.94502258 C-37.20511434 34.49276672 -34.75595964 32.04805328 -32.30154419 29.60832214 C-29.15314733 26.47722304 -26.02573616 23.3260439 -22.90354824 20.16883659 C-20.49575492 17.73913799 -18.0764418 15.321179 -15.65352058 12.90657425 C-14.49464817 11.74852286 -13.33962435 10.58660699 -12.18853569 9.42081833 C-10.58505712 7.79999461 -8.9665653 6.19585508 -7.3430481 4.59513855 C-6.42547226 3.67852448 -5.50789642 2.7619104 -4.56251526 1.81752014 C-2.10305786 -0.01374817 -2.10305786 -0.01374817 0 0 Z " fill="#FB7109" transform="translate(60.103057861328125,0.0137481689453125)"/>
<path d="M0 0 C4.3684888 5.57192924 5.12787741 10.84395154 5.09765625 17.734375 C5.09443359 19.02988281 5.09121094 20.32539062 5.08789062 21.66015625 C5.07953598 23.02343817 5.07107104 24.38671942 5.0625 25.75 C5.05748168 27.12890465 5.05291935 28.50781104 5.04882812 29.88671875 C5.03704102 33.25783118 5.01910561 36.6289211 5 40 C-1.6 40 -8.2 40 -15 40 C-15.04898438 38.31390625 -15.09796875 36.6278125 -15.1484375 34.890625 C-15.22347337 32.67706684 -15.29902085 30.46352598 -15.375 28.25 C-15.4059375 27.13882813 -15.436875 26.02765625 -15.46875 24.8828125 C-15.52675781 23.27792969 -15.52675781 23.27792969 -15.5859375 21.640625 C-15.6173584 20.65610352 -15.6487793 19.67158203 -15.68115234 18.65722656 C-16.00501299 15.9582225 -16.5368138 14.27635632 -18 12 C-20.79870027 10.60064987 -22.90498792 10.74734595 -26 11 C-28.03667615 12.54506466 -28.86073078 13.72146156 -30 16 C-30.26518877 19.26463453 -30.23154074 22.53828887 -30.25 25.8125 C-30.270625 26.71548828 -30.29125 27.61847656 -30.3125 28.54882812 C-30.34159129 33.49798398 -30.34301313 37.06134978 -27 41 C-25.02156182 42.76408495 -25.02156182 42.76408495 -22.6875 44.25 C-21.80964844 44.84296875 -20.93179688 45.4359375 -20.02734375 46.046875 C-17.84348571 47.45581567 -15.65287267 48.8391205 -13.44140625 50.203125 C-5.20810984 55.30340676 1.95751387 59.76496444 5.38696289 69.28149414 C6.66743367 74.95972677 6.43938424 80.84112595 6.39111328 86.63549805 C6.37506069 88.92883015 6.39099853 91.22039409 6.41015625 93.51367188 C6.42324099 102.43098473 6.33487117 110.85536291 0.75 118.3125 C-6.16640968 125.07171855 -13.52418691 126.65232933 -22.9375 127.25 C-31.38066244 126.96003281 -39.50958608 125.76761783 -46 120 C-54.29123142 110.88387565 -53.2877287 97.27870238 -53.125 85.75 C-53.11597656 84.51636719 -53.10695312 83.28273438 -53.09765625 82.01171875 C-53.07436949 79.00772639 -53.03851071 76.00383577 -53 73 C-46.07 73 -39.14 73 -32 73 C-31.95101562 74.72347656 -31.90203125 76.44695312 -31.8515625 78.22265625 C-31.77650199 80.50261937 -31.70095558 82.78256653 -31.625 85.0625 C-31.5940625 86.19623047 -31.563125 87.32996094 -31.53125 88.49804688 C-31.28729921 96.94904404 -31.28729921 96.94904404 -29 105 C-25.38196286 106.70662129 -23.12955167 107.20080919 -19.1875 106.5 C-16.1015903 104.38394763 -15.91589224 102.61472137 -15 99 C-14.72728864 95.99417745 -14.72013493 93.01637204 -14.75 90 C-14.74226563 89.21882813 -14.73453125 88.43765625 -14.7265625 87.6328125 C-14.74621319 81.7965588 -15.20539426 77.21789481 -19.00390625 72.5234375 C-23.83820819 68.45178293 -29.22412686 65.28438547 -34.60742188 61.9921875 C-42.70654771 56.89610832 -47.67123332 52.12657207 -51 43 C-51.38818359 39.39477539 -51.38818359 39.39477539 -51.3984375 35.59765625 C-51.40130768 34.91626083 -51.40417786 34.23486542 -51.40713501 33.53282166 C-51.40916262 32.10170656 -51.4037246 30.67056292 -51.39111328 29.23950195 C-51.37506391 27.07113466 -51.39099159 24.9046378 -51.41015625 22.73632812 C-51.42279591 14.16558893 -50.78991876 7.79866026 -46.4375 0.3125 C-33.99574282 -11.49121835 -12.65140737 -11.13019607 0 0 Z " fill="#001940" transform="translate(201,16)"/>
<path d="M0 0 C6.6 0 13.2 0 20 0 C20.495 15.345 20.495 15.345 21 31 C22.65 29.35 24.3 27.7 26 26 C31.94932373 23.38229756 37.74337147 23.72217118 44 25 C50.62670024 28.06791678 53.6700998 33.60875448 56.25 40.1875 C58.49145886 51.58158254 58.18633221 63.37006968 58.18530273 74.9362793 C58.18748232 77.6653623 58.20568692 80.39403526 58.22460938 83.12304688 C58.3413805 119.22427836 58.3413805 119.22427836 50.2890625 127.828125 C44.5331358 133.02545966 39.80459275 133.2956947 32.16796875 133.2109375 C27.56638224 132.90454333 24.72636597 131.81406905 21.5390625 128.46484375 C20.30425785 127.02196428 19.1448503 125.51524304 18 124 C17.34 126.64 16.68 129.28 16 132 C10.72 132 5.44 132 0 132 C0 88.44 0 44.88 0 0 Z M21 47 C19.9644202 50.10673941 19.85490488 52.31023637 19.82299805 55.56958008 C19.81016281 56.71119095 19.79732758 57.85280182 19.78410339 59.02900696 C19.77671646 60.26337997 19.76932953 61.49775299 19.76171875 62.76953125 C19.753647 64.03842697 19.74557526 65.30732269 19.73725891 66.6146698 C19.72341842 69.30215099 19.71240185 71.98950953 19.70483398 74.67700195 C19.69377764 78.1102494 19.65938131 81.54284726 19.61966228 84.97586536 C19.58714627 88.26118926 19.58271322 91.54657098 19.57421875 94.83203125 C19.55671066 96.06033157 19.53920258 97.2886319 19.52116394 98.55415344 C19.49206175 107.10959909 19.49206175 107.10959909 24 114 C27.39418221 115.41349769 27.39418221 115.41349769 31 115 C34.20082983 112.49500274 35.7127358 110.8617926 37 107 C37.10310176 105.17619437 37.14850674 103.3488907 37.16113281 101.5222168 C37.17074036 100.40062668 37.1803479 99.27903656 37.19024658 98.12345886 C37.19449646 96.91095963 37.19874634 95.69846039 37.203125 94.44921875 C37.21167511 92.57916924 37.21167511 92.57916924 37.22039795 90.67134094 C37.22985166 88.03093821 37.23674653 85.39064924 37.24023438 82.75024414 C37.24462437 80.04698219 37.25853566 77.34403847 37.28125 74.64086914 C37.31171079 70.74355367 37.32228257 66.84664 37.328125 62.94921875 C37.3404718 61.74279221 37.3528186 60.53636566 37.36553955 59.29338074 C37.42198958 51.1965276 37.42198958 51.1965276 34 44 C28.13958393 40.09305596 25.31380076 41.84740465 21 47 Z " fill="#001940" transform="translate(447,9)"/>
<path d="M0 0 C2.20670825 1.14730439 3.7147998 2.40914659 5.48800659 4.15739441 C6.17163773 4.82511368 6.85526886 5.49283295 7.55961609 6.18078613 C8.2858165 6.90678513 9.01201691 7.63278412 9.76022339 8.38078308 C10.5116008 9.12454697 11.26297821 9.86831085 12.03712463 10.63461304 C13.62194935 12.20863567 15.20281669 13.78665139 16.77999878 15.36833191 C19.20372101 17.7930284 21.64797889 20.19561782 24.09420776 22.59757996 C25.63001183 24.12817883 27.16456107 25.66003804 28.69772339 27.19328308 C29.43404495 27.91320938 30.17036652 28.63313568 30.92900085 29.37487793 C31.93080635 30.39064156 31.93080635 30.39064156 32.95285034 31.42692566 C33.84409355 32.3150872 33.84409355 32.3150872 34.75334167 33.22119141 C35.89694214 34.98625183 35.89694214 34.98625183 35.6832428 37.08370972 C34.63623945 39.61705105 33.16823128 41.07596604 31.20944214 42.98625183 C30.54557495 43.64625183 29.88170776 44.30625183 29.19772339 44.98625183 C26.89694214 46.98625183 26.89694214 46.98625183 24.11126709 48.76731873 C20.78428522 51.06402187 17.99108541 53.6238436 15.16696167 56.48918152 C14.62963913 57.02621201 14.09231659 57.56324249 13.53871155 58.11654663 C11.78093751 59.87570325 10.03033613 61.64181512 8.27975464 63.40812683 C7.05565479 64.63596062 5.83110981 65.86335078 4.60614014 67.09031677 C1.39598878 70.30807454 -1.80810866 73.53179467 -5.01095581 76.75682068 C-8.28539665 80.05178456 -11.56556422 83.34103662 -14.84524536 86.63078308 C-21.27011371 93.07704852 -27.68859694 99.52963139 -34.10305786 105.98625183 C-58.92424655 84.85782319 -58.92424655 84.85782319 -60.55618286 72.57609558 C-61.00265351 63.08859422 -58.84574099 57.30442165 -52.6288147 50.13156128 C-49.54912606 46.83845483 -46.35813765 43.65756347 -43.16165161 40.47843933 C-41.9895965 39.30114197 -40.81806065 38.12332746 -39.64701843 36.94502258 C-37.20511434 34.49276672 -34.75595964 32.04805328 -32.30154419 29.60832214 C-29.15314733 26.47722304 -26.02573616 23.3260439 -22.90354824 20.16883659 C-20.49575492 17.73913799 -18.0764418 15.321179 -15.65352058 12.90657425 C-14.49464817 11.74852286 -13.33962435 10.58660699 -12.18853569 9.42081833 C-10.58505712 7.79999461 -8.9665653 6.19585508 -7.3430481 4.59513855 C-6.42547226 3.67852448 -5.50789642 2.7619104 -4.56251526 1.81752014 C-2.10305786 -0.01374817 -2.10305786 -0.01374817 0 0 Z " fill="#FE7F00" transform="translate(60.103057861328125,0.0137481689453125)"/>
<path d="M0 0 C5.39476205 4.40388739 6.64144463 9.8671359 7.72265625 16.40625 C7.96472717 19.38419615 7.97753048 22.33604814 7.94970703 25.32250977 C7.94999908 26.16263107 7.95029114 27.00275238 7.95059204 27.86833191 C7.94921226 30.61154962 7.93371559 33.35448671 7.91796875 36.09765625 C7.9142338 38.01293286 7.91138911 39.92821139 7.90939331 41.8434906 C7.9017948 46.85923636 7.88217915 51.87486439 7.85998535 56.89056396 C7.83944506 62.01882332 7.83037416 67.1471019 7.8203125 72.27539062 C7.79892938 82.31907019 7.76377843 92.36263184 7.72265625 102.40625 C2.44265625 102.40625 -2.83734375 102.40625 -8.27734375 102.40625 C-9.26734375 99.43625 -10.25734375 96.46625 -11.27734375 93.40625 C-12.05078125 94.7675 -12.05078125 94.7675 -12.83984375 96.15625 C-15.35761862 99.79495204 -17.98691058 102.16538943 -22.27734375 103.40625 C-29.94612425 104.15136077 -36.51964567 104.45691698 -43.27734375 100.40625 C-48.7479976 95.24820494 -50.36765729 87.48845952 -50.67578125 80.1875 C-50.68360532 78.42708338 -50.67574479 76.66652846 -50.65234375 74.90625 C-50.66394531 74.03355469 -50.67554688 73.16085938 -50.6875 72.26171875 C-50.65347208 64.60543591 -49.29388284 57.64493399 -45.21484375 51.09375 C-38.49801855 44.9485695 -29.89301432 42.43005247 -21.37890625 39.6171875 C-18.50320109 38.49443108 -16.52282537 37.50274232 -14.27734375 35.40625 C-13.05336662 31.73431862 -13.01623137 28.29541441 -12.96484375 24.46875 C-12.93583984 23.75267578 -12.90683594 23.03660156 -12.87695312 22.29882812 C-12.83497861 18.81494338 -13.01391736 16.78123834 -15.0390625 13.8984375 C-17.55431354 12.22160347 -18.4664149 11.9831496 -21.40234375 12.46875 C-25.49283899 12.99468942 -25.49283899 12.99468942 -27.27734375 16.40625 C-27.64310429 18.72548274 -27.64310429 18.72548274 -27.69140625 21.29296875 C-27.73007812 22.23076172 -27.76875 23.16855469 -27.80859375 24.13476562 C-27.83953125 25.11123047 -27.87046875 26.08769531 -27.90234375 27.09375 C-27.94101562 28.08181641 -27.9796875 29.06988281 -28.01953125 30.08789062 C-28.11379774 32.5270361 -28.19665965 34.96661747 -28.27734375 37.40625 C-34.87734375 37.40625 -41.47734375 37.40625 -48.27734375 37.40625 C-48.35890954 33.75995713 -48.41811879 30.11552168 -48.46484375 26.46875 C-48.48998047 25.44716797 -48.51511719 24.42558594 -48.54101562 23.37304688 C-48.61537675 15.61470289 -48.02431797 8.7471646 -42.96484375 2.59375 C-30.8236571 -7.28861122 -13.35674718 -9.13463425 0 0 Z M-26.90234375 57.96875 C-29.57794299 62.71185775 -29.52131408 67.49386674 -29.58984375 72.84375 C-29.61884766 73.59462891 -29.64785156 74.34550781 -29.67773438 75.11914062 C-29.72235833 79.02202076 -29.5316182 80.98209153 -27.4765625 84.41015625 C-25.33104089 86.73227516 -25.33104089 86.73227516 -21.77734375 86.90625 C-18.13110836 86.38535923 -16.71484286 86.11458235 -14.27734375 83.40625 C-12.54490116 79.10957573 -12.03808111 75.52882681 -12.08203125 70.9140625 C-12.08847656 69.71523437 -12.09492188 68.51640625 -12.1015625 67.28125 C-12.11832031 66.04375 -12.13507813 64.80625 -12.15234375 63.53125 C-12.16136719 62.27054688 -12.17039062 61.00984375 -12.1796875 59.7109375 C-12.20318567 56.6091796 -12.23604041 53.50781348 -12.27734375 50.40625 C-17.19161953 50.40625 -23.56106497 54.70702548 -26.90234375 57.96875 Z " fill="#001940" transform="translate(326.27734375,38.59375)"/>
<path d="M0 0 C8.96182285 9.43377519 7.52643945 22.78016708 7.390625 34.82421875 C7.38315212 36.78147297 7.37746415 38.73873473 7.37347412 40.69599915 C7.35830017 45.81380359 7.31909053 50.9311442 7.2746582 56.04876709 C7.23352654 61.28440072 7.21542509 66.52011028 7.1953125 71.75585938 C7.15258722 82.00414142 7.08230595 92.25195933 7 102.5 C1.72 102.5 -3.56 102.5 -9 102.5 C-9.99 99.86 -10.98 97.22 -12 94.5 C-12.70125 95.428125 -13.4025 96.35625 -14.125 97.3125 C-16.56305452 100.53933686 -19.27073534 101.97602165 -23 103.5 C-29.99500739 104.40074921 -37.3010878 104.5543473 -43.453125 100.7421875 C-48.77418561 96.46921458 -49.79149719 91.3036765 -50.6875 84.84765625 C-53.01967509 59.86423064 -53.01967509 59.86423064 -45.92578125 51.1171875 C-38.91021414 45.22581877 -29.00134806 41.93201468 -20.5234375 38.73828125 C-17.53644114 37.27252607 -15.93886577 36.22960135 -14 33.5 C-13.42491816 30.65127761 -13.44097138 27.89732148 -13.5 25 C-13.48453125 24.24074219 -13.4690625 23.48148438 -13.453125 22.69921875 C-13.4788955 19.02048019 -13.6252046 17.05037523 -15.734375 13.953125 C-18.46465851 12.20197765 -19.59640699 12.19348359 -22.75 12.75 C-23.54921875 12.87890625 -24.3484375 13.0078125 -25.171875 13.140625 C-25.77515625 13.25921875 -26.3784375 13.3778125 -27 13.5 C-27.83371359 16.45508447 -28.17889534 19.20109613 -28.31640625 22.265625 C-28.35451416 23.06774414 -28.39262207 23.86986328 -28.43188477 24.69628906 C-28.49653931 26.20787598 -28.49653931 26.20787598 -28.5625 27.75 C-28.706875 30.9675 -28.85125 34.185 -29 37.5 C-35.6 37.5 -42.2 37.5 -49 37.5 C-49.061875 34.24125 -49.12375 30.9825 -49.1875 27.625 C-49.21481201 26.61969238 -49.24212402 25.61438477 -49.27026367 24.57861328 C-49.35609228 15.09685948 -47.62769101 7.10118089 -40.9609375 0.125 C-30.67900183 -8.39548852 -10.45479536 -7.76257338 0 0 Z M-19.875 53.25 C-20.94492187 53.76046875 -22.01484375 54.2709375 -23.1171875 54.796875 C-26.78819111 56.9656522 -28.47830611 58.71478162 -29.67578125 62.8125 C-30.06741501 66.05881356 -30.16988031 69.22978559 -30.1875 72.5 C-30.20167969 73.69625 -30.21585937 74.8925 -30.23046875 76.125 C-29.92920794 80.5366837 -29.14237522 83.35762478 -26 86.5 C-21.94559058 86.95938737 -21.94559058 86.95938737 -18 86.5 C-14.89058887 83.47031736 -13.05784461 80.97211432 -12.88647461 76.61083984 C-12.89171143 75.40637207 -12.89694824 74.2019043 -12.90234375 72.9609375 C-12.90556641 71.65898438 -12.90878906 70.35703125 -12.91210938 69.015625 C-12.92046534 67.63541601 -12.92893029 66.25520768 -12.9375 64.875 C-12.94251499 63.48698074 -12.9470779 62.09895978 -12.95117188 60.7109375 C-12.96299024 57.30724868 -12.97946566 53.90364561 -13 50.5 C-15.30798732 50.5 -17.87461635 52.28098922 -19.875 53.25 Z " fill="#001940" transform="translate(431,38.5)"/>
<path d="M0 0 C3 2.5 3 2.5 5 5 C5.50168701 5.61705811 6.00337402 6.23411621 6.52026367 6.86987305 C12.77413308 15.87251463 11.34732246 28.27546744 11.1875 38.6875 C11.125625 44.400625 11.06375 50.11375 11 56 C-1.54 56 -14.08 56 -27 56 C-26.87625 59.67125 -26.7525 63.3425 -26.625 67.125 C-26.59100098 68.2711377 -26.55700195 69.41727539 -26.52197266 70.59814453 C-26.25830645 77.9962767 -26.25830645 77.9962767 -24 85 C-21.75487738 86.12256131 -20.48543351 86.13413762 -18 86.125 C-17.29875 86.12757812 -16.5975 86.13015625 -15.875 86.1328125 C-13.90846225 86.11377236 -13.90846225 86.11377236 -12 85 C-9.74705445 78.10863714 -9.45071924 71.2115078 -9 64 C-2.4 64 4.2 64 11 64 C11.54643924 89.68264442 11.54643924 89.68264442 5.4375 97.9375 C-0.25995188 103.78931634 -8.21364538 105.56751504 -16.12890625 106.0390625 C-23.97020106 105.93237822 -32.62956664 105.05748875 -38.58203125 99.53125 C-47.37864076 90.11395515 -47.1562316 78.62561706 -47.16796875 66.41796875 C-47.17129715 65.2086116 -47.17462555 63.99925446 -47.17805481 62.75325012 C-47.1831055 60.20065693 -47.18546371 57.64805717 -47.18530273 55.09545898 C-47.18748661 51.21131389 -47.20565537 47.32745419 -47.22460938 43.44335938 C-47.22754428 40.95573013 -47.22952843 38.46809955 -47.23046875 35.98046875 C-47.23765427 34.82910934 -47.24483978 33.67774994 -47.25224304 32.49150085 C-47.22102255 21.35130514 -46.28122534 10.28122534 -38 2 C-25.88283195 -5.18129325 -12.86076102 -6.71279587 0 0 Z M-23.875 16.3125 C-26.61573872 19.77872838 -27.12642445 22.16275769 -27.09765625 26.44921875 C-27.09443359 27.29677734 -27.09121094 28.14433594 -27.08789062 29.01757812 C-27.07951172 29.89865234 -27.07113281 30.77972656 -27.0625 31.6875 C-27.05798828 32.58017578 -27.05347656 33.47285156 -27.04882812 34.39257812 C-27.03705004 36.59508073 -27.01911481 38.79754885 -27 41 C-21.06 41 -15.12 41 -9 41 C-8.91892087 37.60368528 -8.85946056 34.20931384 -8.8125 30.8125 C-8.78736328 29.85279297 -8.76222656 28.89308594 -8.73632812 27.90429688 C-8.61133021 20.9409463 -8.61133021 20.9409463 -12 15 C-16.45716337 12.77141831 -20.07411023 13.25526258 -23.875 16.3125 Z " fill="#001940" transform="translate(588,37)"/>
<path d="M0 0 C6.60562604 7.38275851 8.28396083 15.49143964 8.22265625 25.078125 C8.22164917 25.8211084 8.22064209 26.5640918 8.21960449 27.32958984 C8.21438776 30.09474235 8.2004265 32.85987279 8.1875 35.625 C8.166875 41.8125 8.14625 48 8.125 54.375 C-4.415 54.375 -16.955 54.375 -29.875 54.375 C-29.75125 57.695625 -29.6275 61.01625 -29.5 64.4375 C-29.46600098 65.47011963 -29.43200195 66.50273926 -29.39697266 67.56665039 C-29.21095974 76.71997755 -29.21095974 76.71997755 -24.875 84.375 C-22.66427023 84.61753813 -22.66427023 84.61753813 -20.25 84.5 C-19.43273437 84.48195313 -18.61546875 84.46390625 -17.7734375 84.4453125 C-17.14695313 84.42210938 -16.52046875 84.39890625 -15.875 84.375 C-11.96608724 77.40693813 -12.22144565 70.20467177 -11.875 62.375 C-5.275 62.375 1.325 62.375 8.125 62.375 C8.67452477 89.85123827 8.67452477 89.85123827 0.98046875 97.90625 C-6.1770762 103.5720119 -15.27188333 104.75349763 -24.11328125 104.15625 C-32.51118738 103.14888871 -38.13598916 101.0129565 -44.1875 95.125 C-49.42254144 86.59382136 -49.33492483 77.69645725 -49.30859375 67.97265625 C-49.31316501 66.48489649 -49.31847336 64.99713882 -49.32447815 63.50938416 C-49.33337048 60.4037107 -49.33103073 57.29829494 -49.32104492 54.19262695 C-49.30955903 50.2375149 -49.32977983 46.28329625 -49.35896206 42.32830143 C-49.37741881 39.25937876 -49.37701294 36.19066651 -49.37132454 33.12170219 C-49.37117248 31.66463404 -49.37711974 30.20755054 -49.38961601 28.75053596 C-49.46177525 18.96006926 -48.95958375 10.31949612 -42.5 2.5 C-29.36102621 -8.13631212 -14.64447923 -8.27731435 0 0 Z M-27.875 15.375 C-29.82073507 20.80367009 -30.12659367 25.58497675 -30 31.3125 C-29.95875 33.973125 -29.9175 36.63375 -29.875 39.375 C-23.935 39.375 -17.995 39.375 -11.875 39.375 C-11.79392087 35.97868528 -11.73446056 32.58431384 -11.6875 29.1875 C-11.66236328 28.22779297 -11.63722656 27.26808594 -11.61132812 26.27929688 C-11.48633021 19.3159463 -11.48633021 19.3159463 -14.875 13.375 C-19.40152673 11.11173663 -24.52371399 11.52722717 -27.875 15.375 Z " fill="#001940" transform="translate(262.875,38.625)"/>
<path d="M0 0 C18.15 0 36.3 0 55 0 C55 6.27 55 12.54 55 19 C49.39 19 43.78 19 38 19 C38 55.96 38 92.92 38 131 C31.07 131 24.14 131 17 131 C17 94.04 17 57.08 17 19 C11.39 19 5.78 19 0 19 C0 12.73 0 6.46 0 0 Z " fill="#001940" transform="translate(331,10)"/>
<path d="M0 0 C6.6 0 13.2 0 20 0 C20 43.56 20 87.12 20 132 C13.4 132 6.8 132 0 132 C0 88.44 0 44.88 0 0 Z " fill="#001940" transform="translate(513,9)"/>
<path d="M0 0 C3.3 0 6.6 0 10 0 C10.2423085 0.65033203 10.484617 1.30066406 10.73426819 1.97070312 C13.59036159 9.63589167 16.44714489 17.30082295 19.30422211 24.96564484 C20.05877022 26.9899935 20.81323686 29.01437251 21.56768799 31.03875732 C26.63205175 44.62720498 31.69830702 58.21486697 36.80078125 71.7890625 C37.15578201 72.73376404 37.51078278 73.67846558 37.87654114 74.65179443 C39.50915419 78.99532331 41.14384001 83.33805683 42.78149414 87.6796875 C43.35176875 89.19529614 43.92200266 90.71092009 44.4921875 92.2265625 C44.75046829 92.90909088 45.00874908 93.59161926 45.27485657 94.29483032 C47 98.88668128 47 98.88668128 47 100 C43.7 100 40.4 100 37 100 C33.31129058 91.42963684 30.14576195 82.80813345 27 74 C12.15 73.67 -2.7 73.34 -18 73 C-18.33 74.65 -18.66 76.3 -19 78 C-19.58275392 79.77812936 -20.20077638 81.54496446 -20.84765625 83.30078125 C-21.20537109 84.27724609 -21.56308594 85.25371094 -21.93164062 86.25976562 C-22.30482422 87.26716797 -22.67800781 88.27457031 -23.0625 89.3125 C-23.43955078 90.33923828 -23.81660156 91.36597656 -24.20507812 92.42382812 C-25.13345402 94.95042074 -26.06629211 97.47537297 -27 100 C-30.3 100 -33.6 100 -37 100 C-36.35985803 94.85350207 -34.8020493 90.42555117 -32.9296875 85.6328125 C-32.61648056 84.81707764 -32.30327362 84.00134277 -31.98057556 83.16088867 C-30.95036652 80.48031108 -29.91261128 77.80271993 -28.875 75.125 C-27.4155004 71.33428079 -25.95985644 67.54208364 -24.50390625 63.75 C-24.13140244 62.78144073 -23.75889862 61.81288147 -23.37510681 60.81497192 C-20.81027229 54.13855715 -18.28060265 47.4497332 -15.77734375 40.75 C-15.44112 39.8502243 -15.10489624 38.95044861 -14.75848389 38.02340698 C-13.46214572 34.55138561 -12.16711962 31.07888495 -10.87567139 27.6050415 C-7.42443988 18.323413 -3.91079378 9.10022376 0 0 Z M4 13 C2.07911934 18.21025445 0.15855963 23.42062706 -1.76171875 28.63110352 C-2.41332592 30.39903869 -3.06501671 32.16694305 -3.71679688 33.93481445 C-4.03197266 34.78970459 -4.34714844 35.64459473 -4.671875 36.52539062 C-4.98354614 37.37076385 -5.29521729 38.21613708 -5.61633301 39.08712769 C-6.53144768 41.57140052 -7.44451899 44.0564176 -8.35742188 46.54150391 C-9.34368487 49.22484433 -10.33966944 51.90352565 -11.34570312 54.57958984 C-11.71115234 55.55750488 -12.07660156 56.53541992 -12.453125 57.54296875 C-12.75895508 58.35145264 -13.06478516 59.15993652 -13.37988281 59.99291992 C-14.14759816 62.12760262 -14.14759816 62.12760262 -14 65 C-1.46 65 11.08 65 24 65 C20.15150809 53.19795814 16.16091021 41.46116213 11.92739868 29.79229736 C11.43369051 28.4295447 10.94246205 27.06589115 10.45370483 25.70135498 C9.76158537 23.7721207 9.05995329 21.84662285 8.35546875 19.921875 C7.94965576 18.80393555 7.54384277 17.68599609 7.12573242 16.53417969 C6.26207442 13.86609881 6.26207442 13.86609881 4 13 Z " fill="#979797" transform="translate(663,42)"/>
<path d="M0 0 C51.59072581 0 51.59072581 0 61.30859375 9.12890625 C68.60402337 17.19936996 68.73341234 26.50563936 68.22216797 36.83447266 C67.56749406 43.21574471 64.33998411 48.01917406 59.8125 52.375 C48.8947238 60.75320652 36.08290517 60.14514581 23 60.0625 C18.38 60.041875 13.76 60.02125 9 60 C9 73.2 9 86.4 9 100 C6.03 100 3.06 100 0 100 C0 67 0 34 0 0 Z M9 8 C9 22.52 9 37.04 9 52 C15.0946875 52.061875 15.0946875 52.061875 21.3125 52.125 C22.56973877 52.14320801 23.82697754 52.16141602 25.12231445 52.18017578 C35.0757708 52.2285276 44.688192 51.93700571 53 46 C57.59637544 41.27939819 59.08404306 36.61119051 59.3125 30.125 C59.14357313 24.19477781 58.26102381 19.53054983 54.23046875 15.01953125 C48.07313188 9.30957259 42.57826339 7.67888876 34.1953125 7.8046875 C33.23129517 7.80770874 33.23129517 7.80770874 32.24780273 7.81079102 C29.87346135 7.82116422 27.49922263 7.84908605 25.125 7.875 C19.80375 7.91625 14.4825 7.9575 9 8 Z " fill="#979797" transform="translate(717,42)"/>
<path d="M0 0 C2.97 0 5.94 0 9 0 C9 33 9 66 9 100 C6.03 100 3.06 100 0 100 C0 67 0 34 0 0 Z " fill="#979797" transform="translate(799,42)"/>
<path d="M0 0 C0.66 0 1.32 0 2 0 C2 48.51 2 97.02 2 147 C1.34 147 0.68 147 0 147 C0 98.49 0 49.98 0 0 Z " fill="#979797" transform="translate(611,3)"/>
</svg>
