<?xml version="1.0"?><svg version="1.2" baseProfile="tiny-ps" viewBox="0 0 300 300" xmlns="http://www.w3.org/2000/svg" xmlns:xlink="http://www.w3.org/1999/xlink"><title>SeaTable</title><g><g fill="#ff8000" transform="matrix(.1 0 0 -.1 0 300)"><path d="M0 1500V0h3000v3000H0V1500z"/></g><g fill="#fb6d0b" transform="matrix(.1 0 0 -.1 0 300)"><path d="M0 1500V0h3000v3000H0V1500zm1920 1105 334-334-509-513c-280-282-571-576-647-653L960 965l-195 195-196 195-29 46c-17 25-39 72-51 105l-20 59 3 100 4 100 33 70 32 70 517 518c284 284 519 517 522 517s156-151 340-335zm601-1250v-80l-16-51-15-50-39-60-39-59-498-498-499-497-340 340-339 339 20 22c10 12 58 57 106 101l87 79 203 71c112 38 235 80 273 93 39 13 135 47 215 75 80 29 190 67 245 85s206 70 335 115 246 85 260 89l25 8 8-21c4-11 8-57 8-101z"/></g><g fill="#f5561a" transform="matrix(.1 0 0 -.1 0 300)"><path d="M0 1500V0h3000v3000H0V1500zm1923 1102 337-337-516-515c-283-283-524-527-535-542l-19-26 157 53c87 29 230 79 318 110 88 30 167 57 175 60 8 2 145 49 304 104 158 56 292 101 298 101 5 0 22-29 39-64l30-63 10-64 10-63-11-69-12-68-34-67-33-67-516-515-515-515-340 340-340 340 115 115 115 115-205 205-206 205-34 70-35 70-9 65-9 65 9 64 9 64 27 61 26 61 521 523c286 287 523 522 526 522s157-152 343-338z"/></g><g fill="#f0362d" transform="matrix(.1 0 0 -.1 0 300)"><path d="M0 1500V0h3000v3000H0V1500zm1887 390c-205-206-383-387-396-402l-24-28 219 76c120 41 271 93 334 115s155 53 204 69l89 29 47-40c88-74 140-167 161-284l11-64-12-71-12-71-34-67-33-67-516-515-515-515-340 340-340 340 115 115 115 115-205 205-206 205-34 70-35 70-10 65-10 65 10 63c12 72 33 129 68 187l25 40 506 508 506 507 342-342 343-343-373-375z"/></g><g fill="#a0571e" transform="matrix(.1 0 0 -.1 0 300)"><path d="M0 1500V0h3000v3000H0V1500zm2148 653-112-112 205-208 206-208 31-65 31-65 11-67 12-67-12-71-12-71-34-67-33-67-516-515-515-515-340 340-340 340 115 115 115 115-205 205-206 205-34 70-35 70-10 65-10 65 10 63c12 72 33 129 68 187l25 40 506 508 506 507 342-342 343-343-112-112z"/></g><g fill="#04193f" transform="matrix(.1 0 0 -.1 0 300)"><path d="M0 1500V0h3000v3000H0V1500zm1925 1110 340-340-115-115-114-115 210-212 211-213 26-56c33-72 46-128 47-205v-60l-16-55c-9-30-27-76-41-104l-25-50-516-518-517-517-342 342-343 343 112 112 112 113-206 207-205 208-27 52c-72 144-73 287-4 428l30 60 516 518c284 284 519 517 522 517s158-153 345-340z"/></g></g></svg>