<?xml version="1.0"?><svg version="1.2" baseProfile="tiny-ps" viewBox="0 0 300 300" xmlns="http://www.w3.org/2000/svg" xmlns:xlink="http://www.w3.org/1999/xlink"><title>SeaTable</title><g><g fill="#ff8000" transform="matrix(.1 0 0 -.1 0 300)"><path d="M0 1500V0h3000v3000H0V1500z"/></g><g fill="#fb6d0b" transform="matrix(.1 0 0 -.1 0 300)"><path d="M0 1500V0h3000v3000H0V1500zm1593 103c-306-310-559-563-563-563s-85 80-181 178l-175 177-27 55-26 55-9 60-10 60 8 57 8 57 27 58 26 58 447 448 447 447 292-292 292-291-556-564zm791-178 9-49-11-58c-6-33-23-85-37-116l-26-57-447-448-447-447-292 292-293 293 92 92c51 51 98 93 105 93s21 5 31 10c9 6 109 42 222 80 195 65 620 211 760 261 36 12 119 42 185 65s125 41 130 40l10-3 9-48z"/></g><g fill="#f6541b" transform="matrix(.1 0 0 -.1 0 300)"><path d="M0 1500V0h3000v3000H0V1500zm1867 958 293-293-462-462c-254-254-460-465-457-467 5-5 121 31 264 81 39 14 140 49 225 78 85 30 253 88 373 129l218 75 32-67 32-67v-170l-19-50c-11-27-32-68-47-90s-223-235-461-473l-433-432-295 295-295 295 97 97 97 97-179 182-180 181-25 56-26 55-11 62-10 61 12 62 12 61 25 51 25 50 446 448c246 246 449 447 452 447s137-132 297-292z"/></g><g fill="#f0352e" transform="matrix(.1 0 0 -.1 0 300)"><path d="M0 1500V0h3000v3000H0V1500zm1867 958 292-292-331-333c-182-184-329-335-326-338 4-4 279 87 542 179 70 26 136 46 146 46h18l65-69 65-69 21-58 22-58 6-60 5-61-16-63c-9-35-27-82-41-105l-24-42-443-443-443-442-295 295-295 295 98 98 97 97-175 175-176 175-29 60-30 60-12 58-11 59 12 65c6 36 21 86 33 112l21 46 451 453c248 248 453 452 456 452s136-131 297-292z"/></g><g fill="#984f23" transform="matrix(.1 0 0 -.1 0 300)"><path d="M0 1500V0h3000v3000H0V1500zm1868 957 292-292-100-100-100-99 189-191 188-190 22-59 22-60 6-60 5-61-16-63c-9-35-27-82-41-105l-24-42-443-443-443-442-295 295-295 295 98 98 97 97-175 175-176 175-29 60-30 60-12 58-11 59 12 65c6 36 21 86 33 112l21 46 451 453c248 248 453 452 456 452s137-132 298-293z"/></g><g fill="#03183f" transform="matrix(.1 0 0 -.1 0 300)"><path d="M0 1500V0h3000v3000H0V1500zm2063 568-97-98 180-182 181-183 29-60 29-60v-210l-29-65-30-65-450-453-451-452-297 297-298 298 95 95c52 52 95 100 95 105s-81 90-179 190l-180 180-28 60-28 60v200l29 65 30 65 450 453 451 452 297-297 298-298-97-97z"/></g></g></svg>